<svg width="21" height="22" viewBox="0 0 21 22" fill="none" xmlns="http://www.w3.org/2000/svg">
<path d="M7.90898 19.9233C7.9088 19.7751 7.84526 19.6345 7.73545 19.5395C7.62476 19.4458 7.48029 19.4063 7.33936 19.4311C5.80308 19.726 3.85468 19.7299 3.28883 18.0844C2.94077 17.2049 2.383 16.4311 1.66767 15.8354C1.51961 15.7568 1.38616 15.6517 1.27347 15.5249C1.23539 15.284 1.03481 15.1069 0.799096 15.1059H0.797151C0.531261 15.1059 0.315355 15.3286 0.314294 15.604C0.311465 16.1743 1.00086 16.601 1.20456 16.7133C1.71642 17.1894 2.11941 17.7776 2.38441 18.4351C2.72109 19.4146 3.74717 20.9302 6.94515 20.5074C6.94798 20.8716 6.9527 21.0601 6.95647 21.2036L6.96118 21.4986C6.96118 21.7747 7.17738 21.9986 7.44404 21.9986C7.7107 21.9986 7.9269 21.7747 7.9269 21.4986L7.92218 21.1762C7.91652 20.9751 7.90898 20.6851 7.90898 19.9233ZM18.7902 4.2817C18.761 4.24362 18.7299 4.20358 18.6978 4.16354C18.7627 3.95218 18.8136 3.73654 18.8506 3.51809C19.0001 2.44491 18.8675 1.34982 18.4668 0.34805C18.414 0.210416 18.3047 0.104153 18.1688 0.0580718C18.032 0.0111968 16.7843 -0.336459 14.1805 1.43991C11.9989 0.865689 9.71333 0.865689 7.53175 1.43991C4.92885 -0.315952 3.68869 0.0131499 3.551 0.0551421C3.41243 0.10043 3.30068 0.207547 3.24639 0.347134C2.83833 1.36404 2.70659 2.47708 2.86539 3.56588C2.90234 3.76553 2.94926 3.96304 3.0059 4.15768C2.97195 4.20071 2.93989 4.24362 2.90971 4.28561C2.09218 5.35965 1.65718 6.69272 1.67805 8.06009C1.67569 8.37021 1.68954 8.6802 1.71954 8.9888C2.04773 13.6529 4.95337 14.9507 7.46296 15.3941C7.29951 15.6975 7.17733 16.0228 7.09982 16.3609C7.03628 16.6289 7.1946 16.8996 7.45347 16.9654C7.71235 17.0312 7.9737 16.8672 8.03724 16.5991C8.12659 16.1395 8.35087 15.7196 8.67942 15.397C8.88035 15.215 8.9008 14.8988 8.72504 14.6907C8.64582 14.597 8.53577 14.5372 8.4163 14.523C5.75404 14.2105 2.99082 13.2993 2.68143 8.89798C2.65414 8.6196 2.64158 8.33987 2.64376 8.06009C2.62555 6.91232 2.99064 5.79324 3.67738 4.89206C3.74999 4.79049 3.8311 4.69772 3.91126 4.60592C4.03369 4.46603 4.06982 4.26669 4.00463 4.0903C3.92222 3.86477 3.85939 3.63211 3.81695 3.39499C3.70131 2.59109 3.7784 1.77011 4.04141 1.00436C5.18825 1.1697 6.27132 1.65023 7.17803 2.39596C7.29509 2.47775 7.44103 2.50204 7.57696 2.46237C9.72512 1.85885 11.9898 1.85885 14.138 2.46237C14.2747 2.50192 14.4212 2.47726 14.5387 2.39499C15.4391 1.64157 16.5217 1.15817 17.6689 0.997525C17.9288 1.75174 18.0074 2.56021 17.898 3.35299C17.8554 3.60495 17.7887 3.85196 17.699 4.0903C17.6338 4.26669 17.6699 4.46597 17.7924 4.60592C17.8773 4.7026 17.9622 4.811 18.0366 4.90768C18.725 5.80191 19.0906 6.91671 19.0703 8.06009C19.0726 8.3461 19.059 8.63205 19.0298 8.91653C18.7233 13.2974 15.9497 14.2085 13.277 14.523C13.0118 14.5545 12.8215 14.8027 12.852 15.0774C12.8657 15.201 12.9234 15.315 13.0139 15.3969C13.3468 15.7219 13.5697 16.1493 13.6496 16.6157C13.7319 16.945 13.7702 17.2845 13.7636 17.6245V20.0835C13.7533 20.7593 13.7533 21.2661 13.7533 21.4985C13.7537 21.7746 13.9702 21.9982 14.2368 21.9978C14.5029 21.9974 14.7186 21.7741 14.719 21.4985C14.719 21.268 14.719 20.7671 14.7293 20.0913V17.6245C14.7369 17.201 14.6884 16.7785 14.5851 16.3686C14.5124 16.0279 14.3931 15.6997 14.2305 15.394C16.7495 14.9516 19.6664 13.6548 19.9918 9.00924C20.0237 8.69394 20.0385 8.37704 20.0361 8.06003C20.0581 6.68881 19.6175 5.35263 18.7902 4.2817Z" fill="black"/>
</svg>
