<svg width="21" height="16" viewBox="0 0 21 16" fill="none" xmlns="http://www.w3.org/2000/svg">
<path d="M18.8033 0H2.19671C1.61431 0.000696424 1.05595 0.244098 0.644133 0.676807C0.232314 1.10952 0.000662803 1.69619 0 2.30814V13.6919C0.000662803 14.3038 0.232314 14.8905 0.644133 15.3232C1.05595 15.7559 1.61431 15.9993 2.19671 16H18.8033C19.3857 15.9993 19.944 15.7559 20.3559 15.3232C20.7677 14.8905 20.9993 14.3038 21 13.6919V2.30814C20.9994 1.69619 20.7677 1.10951 20.3559 0.676796C19.9441 0.244084 19.3857 0.000684253 18.8033 0ZM14.8976 7.99686L20.1214 3.68905V13.325L14.8976 7.99686ZM2.19671 0.923255H18.8033C19.1527 0.92367 19.4877 1.06971 19.7348 1.32934C19.9819 1.58896 20.1209 1.94097 20.1213 2.30814V2.51541L11.6679 9.48681C11.3589 9.74033 10.978 9.87788 10.5859 9.87755C10.1938 9.87721 9.81304 9.73901 9.50436 9.48496L0.878683 2.51365V2.30814C0.879078 1.94097 1.01807 1.58896 1.26516 1.32934C1.51225 1.06971 1.84727 0.92367 2.19671 0.923255ZM6.25789 8.02585L0.878683 13.3436V3.67843L6.25789 8.02585ZM18.8033 15.0767H2.19671C1.97169 15.0766 1.75046 15.016 1.55406 14.9006C1.35767 14.7852 1.19265 14.6189 1.07472 14.4175L6.96339 8.59642L8.96599 10.2149C9.42913 10.595 9.99998 10.8014 10.5877 10.8012C11.1753 10.8011 11.7461 10.5944 12.209 10.214L14.2001 8.57242L19.9276 14.4138C19.8098 14.6162 19.6447 14.7834 19.4478 14.8995C19.251 15.0156 19.0291 15.0766 18.8033 15.0767Z" fill="black"/>
</svg>
