<svg width="21" height="16" viewBox="0 0 21 16" fill="none" xmlns="http://www.w3.org/2000/svg">
<path d="M20.4456 0.299432C20.0063 -0.00587432 19.4024 -0.0844386 18.8733 0.0948372L0.95623 6.15656C0.168079 6.42841 -0.207838 7.18424 0.116565 7.84467C0.284352 8.18624 0.618338 8.45134 1.03436 8.57323L4.89961 9.69931L6.99435 15.5032C6.99856 15.5151 7.0115 15.5223 7.01693 15.5336C7.0386 15.5799 7.07027 15.6225 7.11025 15.6592C7.12514 15.674 7.14138 15.6879 7.15871 15.7007C7.2109 15.737 7.27151 15.7638 7.33669 15.7795C7.34664 15.782 7.3533 15.7894 7.36343 15.7913L7.36929 15.7911L7.37222 15.7921C7.4056 15.7984 7.43966 15.8014 7.47378 15.8011C7.5184 15.7998 7.56265 15.7934 7.60513 15.782C7.61337 15.7801 7.62167 15.7806 7.62972 15.7783C7.7023 15.7569 7.76785 15.7216 7.82125 15.6753C7.82748 15.6701 7.83694 15.6692 7.84292 15.6636L10.8566 12.8771L15.2531 15.7299C15.5203 15.905 15.8496 16.0001 16.1887 16C16.9221 15.9999 17.5551 15.5694 17.7063 14.968L20.969 1.545C21.0821 1.08067 20.8808 0.601924 20.4456 0.299432ZM8.0881 10.8L7.38088 13.6801L5.90602 9.59241L13.2209 6.40038L8.22384 10.5881C8.15475 10.646 8.10757 10.7197 8.0881 10.8ZM16.7268 14.7994C16.6885 14.9537 16.5571 15.0802 16.3801 15.1333C16.2072 15.1891 16.0118 15.1642 15.8665 15.0679L11.1028 11.9769C10.8965 11.8431 10.6022 11.8648 10.427 12.0268L8.33133 13.9644L9.03732 11.0922L16.2258 5.0673C16.4212 4.90388 16.4215 4.63872 16.2265 4.47505C16.0723 4.34549 15.8355 4.3149 15.6418 4.3995L5.27846 8.92201L1.36151 7.78104C1.148 7.72217 1.0028 7.55609 1.00018 7.36776C0.989861 7.1781 1.12383 7.00373 1.33416 6.9332L19.2483 0.872296C19.4354 0.805751 19.6514 0.833627 19.8059 0.944313C19.9597 1.04835 20.0304 1.21617 19.9886 1.37805L16.7268 14.7994Z" fill="black"/>
</svg>
